<svg id="Layer_1" data-name="Layer 1" xmlns="http://www.w3.org/2000/svg" viewBox="0 0 90.5 83.56"><title>noun_Flower_2418122</title><path d="M73.12,46.84a52.28,52.28,0,0,0-5.2-1.63c-2.59-.54-5.22-.9-7.84-1.21-1.38-.16-2.8,0-4.2-.05a5.2,5.2,0,0,1-1-.21,8.1,8.1,0,0,1,.9-.67,3.58,3.58,0,0,1,.58-.1c-2.25-.13-3.12,2-4.77,3.08,1.05.23,2.1.49,3.15.69,3.86.73,7.58,1.8,10.45,4.69A13,13,0,0,1,68.65,59a62.3,62.3,0,0,1,.88,13.61c-.26,3.7-.91,7.38-1.37,11.07-.08.65,0,1.32-.11,2a12.34,12.34,0,0,1-.49,1.66c-3-1.92-5.67-3.72-8.44-5.46s-5.76-3.62-8.7-5.32a10,10,0,0,1-3.86-3.85c-.62-1.1-1.52-2-2.2-3.11s-1.1-2.06-1.77-3.32l-.46.73a41.58,41.58,0,0,1-7.59,8.74A92,92,0,0,1,23.44,84.2C19.83,86.49,15.81,88.13,12,90a40.15,40.15,0,0,1-3.84,1.62,1.87,1.87,0,0,1-1.45,0,1.67,1.67,0,0,1-.21-1.34c.62-3.25,1.33-6.49,2-9.74C9.16,76.69,9.7,72.78,10.63,69c1.12-4.62,2.89-9,6.68-12.2.4-.34.83-.65,1.24-1-.84-.7-1.6-1.42-2.45-2C12.34,51.08,10.69,47,9.19,43A51.11,51.11,0,0,1,6.34,29.29C6.08,26,5.46,22.73,5,19.45l-.26-1.83a21.21,21.21,0,0,1,3.06.88c3,1.38,5.89,2.85,8.82,4.28,3.53,1.72,6.38,4.41,9.53,6.68.16.12.32.25.55.43a1.58,1.58,0,0,0,.17-.48c-.23-4.54,2-8.1,5-11.1a67.2,67.2,0,0,1,6.69-5.21c1.69-1.3,3.38-2.62,5.08-3.91a6.94,6.94,0,0,1,1.45-.92,1.06,1.06,0,0,1,1,.12c1.65,2,3.6,3.82,4.78,6.06A82.75,82.75,0,0,1,55,24.78a13,13,0,0,1,.23,3.51c.59-.45,1.24-.93,1.87-1.44a22.61,22.61,0,0,1,12-4.86c5.79-.65,11.32.53,16.88,1.82,2.94.68,5.92,1.15,8.89,1.71a1.72,1.72,0,0,1,.39.22,1.11,1.11,0,0,1-.29.48c-2,.58-3.11,2.3-4.41,3.76-2.45,2.77-4.94,5.51-7.33,8.33-2.09,2.47-3.91,5.19-6.15,7.51A76,76,0,0,1,70.72,51c-.71.59-1.28,1.37-2,2a5.13,5.13,0,0,1-1.34.59l-.31-.54,5.32-4.25c-2.21,1.16-4.28,2.71-7,2.22,3-.45,5.28-2.21,7.66-3.8ZM28.72,35l-.29-.29c-1-1.94-1.79-4-4.3-4.6,1.11,2.13,2,4.31,4.08,5.61L33.7,39l.11-.2ZM9.91,86.13l-.26,1.5a5.85,5.85,0,0,0,1.48-.2c2.48-1,4.93-2.09,7-3l.47-8.48c-3.57,3.3-4.49,8.31-8.33,11.56l-.42-1.4a22.74,22.74,0,0,0,2-2.4c2.38-3.77,4.67-7.6,7-11.38a29.92,29.92,0,0,1,1.92-2.47l-.2-.27c-2.28,1.09-4.57,2.15-6.81,3.3a2.37,2.37,0,0,0-1.12,1.19c-.57,1.74-1.07,3.52-1.48,5.31C10.73,81.62,10.34,83.88,9.91,86.13ZM41.47,66.67l-.14,0C39.71,68.34,38,70,36.5,71.77A52.82,52.82,0,0,1,23.37,82.36c-1.15.68-2.26,1.43-3.44,2-2,1-4,2.06-6.07,2.95a19.68,19.68,0,0,1-4.19,1.3c-1.14.21-1.42-.34-1.15-1.47q1.19-5.12,2.31-10.26c.27-1.25.39-2.53.71-3.76s.89-2.53,1.26-3.81c1-3.6,2.08-7.16,4.64-10.05a30.89,30.89,0,0,0,1.92-2.73,35.77,35.77,0,0,0-3,2.36,14.09,14.09,0,0,0-2.25,2.75A32.11,32.11,0,0,0,10.5,72.44c-.88,4.67-1.65,9.35-2.47,14-.24,1.39-.52,2.77-.82,4.37.72-.26,1.22-.42,1.7-.63,2.77-1.23,5.56-2.41,8.29-3.74a80.39,80.39,0,0,0,8-4.25,62.57,62.57,0,0,0,14-12.34,37.39,37.39,0,0,0,2.23-3.22ZM64,42.08v.42l-7.26-.81-.06.46c.85.13,1.69.3,2.54.4,2.91.34,5.86.48,8.73,1.06A52.66,52.66,0,0,1,74.1,45.7a1.53,1.53,0,0,0,1.24-.08c1.17-1,2.51-1.86,2.92-3.38A17.14,17.14,0,0,0,70,39.8c-3.07-.07-6.14-.36-9.21-.56-1.3-.08-2,.84-3,1.8Zm-34.6-17c-.26,1.44-.76,2.5-.55,3.41a11.47,11.47,0,0,0,1.8,4.37c1.5,2,3.43,3.62,5.11,5.46C37,39.64,38.6,40.77,38.63,43a14.39,14.39,0,0,1-2.3-1.39c-.72-.48-1.47-.93-2.21-1.4l-.17.29c1.74.72,2.78,2.68,5.07,2.71,0-.5,0-.94,0-1.38-.07-2.07-.25-4.13-.19-6.2a3.92,3.92,0,0,0-1.49-3.2c-.37-.33-.69-.7-1.05-1ZM36,55a19.14,19.14,0,0,0-2,1.82,11.09,11.09,0,0,0-2.27,3.24c-1.35,4.28-.85,8.76-1,13.16a17.49,17.49,0,0,0,.43,2.84c1.55-1.55,2.84-2.84,4.11-4.15a.92.92,0,0,0,.19-.67c-.14-1.13-.35-2.24-.47-3.37A33,33,0,0,1,36,55Zm16.86-29c-.78.89-1.45,1.62-2.1,2.37-2.76,3.17-5.56,6.31-7.42,10.16a2.57,2.57,0,0,0,0,2.64c.39.69.68,1.43,1.08,2.27a12.13,12.13,0,0,1,.83-1.33C47.05,40,49,38,50.66,35.82a11.84,11.84,0,0,0,2.25-9.77ZM35.39,42.38c-.75-.48-1.45-1-2.2-1.38a1.56,1.56,0,0,0-1-.15c-1.54.37-3.06.85-4.61,1.19-3.08.67-6.16,1.32-9.25,1.9-2,.37-3.93.61-6.16.94.53.94,1,1.83,1.52,2.67a.85.85,0,0,0,.71.27c1.78-.28,3.57-.56,5.33-.94,3.55-.77,7.1-1.53,10.62-2.44,1.25-.32,2.7-.33,3.64-1.55A3.36,3.36,0,0,1,35.39,42.38Zm15.46,13L51,55c2.41.71,4.79,1.57,7.25,2.08s5,.67,7.82,1a7.6,7.6,0,0,0-3.82-5.89,13.31,13.31,0,0,1-2.61.55c-2.28,0-4.55-.17-6.83-.17a6.76,6.76,0,0,0-1.71.57,2.12,2.12,0,0,1-1.21.2c-1.16-.51-2.27-1.14-3-1.54,1.69,1.88,3.35,4.56,6.67,4.71Zm16.3,29.1a2.48,2.48,0,0,1-1.15,0c-1.64-1.21-3.23-2.48-4.83-3.75S57.74,77.95,56,76.62a2.05,2.05,0,0,0-1.05-.18c-.74-.7-1.33-1.31-2-1.85C52,73.79,51,73,50.06,72.29s-2.1-1.58-3.34-2.51a1.43,1.43,0,0,0,0-.93A10.71,10.71,0,0,1,44.58,63c-.12-1.91-.2-3.83-.27-5.75,0-.81,0-1.63,0-2.44h-.36a1.23,1.23,0,0,0-.07.44c.65,3-.11,5.75-.9,8.55a1.21,1.21,0,0,0,.11.69c.78,2,1.26,4.1,2.75,5.81s2.13,3.8,4.1,5c3.15,1.92,6.27,3.88,9.4,5.81l7.82,4.8V84.5ZM30,39.64c-1.47-.78-2.59-1.43-3.77-2a3.11,3.11,0,0,0-1.8-.39c-2.54.61-5,1.39-7.56,2-2,.51-4.13.89-6.32,1.35l1.23,3.27L19.64,43l0-.39a16.17,16.17,0,0,0-6.23.58,1.28,1.28,0,0,1-1.63-.72ZM56.78,61.4l.25-.3c3.19,1.9,6.52,3.31,10.56,3.13-.31-1.36-.64-2.57-.84-3.8s-.76-1.51-2-1.34a27.63,27.63,0,0,1-6.24.27A49.37,49.37,0,0,1,52.2,58c.81,2.8,3,3.8,5.57,4.47Zm-42,4.43c.84-.26,1.35-.38,1.83-.56,3-1.17,5.93-2.54,9-3.47,2.9-.88,4.67-2.9,6.39-5.19-1.18.22-2.3.61-3.44.93a50.48,50.48,0,0,0-11,4.15,3.14,3.14,0,0,0-1.18.6C15.8,63.3,15.38,64.41,14.74,65.83Zm4-6.73L20,58.64c3.94-1.31,7.83-2.85,11.86-3.84a7.21,7.21,0,0,0,4.4-2.9c.21-.29.38-.6.57-.9a4.15,4.15,0,0,1-3.68,1,12.07,12.07,0,0,0-1.34-.13,19.15,19.15,0,0,0-6.64,1,4.21,4.21,0,0,0-2.63,1.82c-.52.82-1,2-1.75,2.24-1.23.33-1.39,1.24-2.1,2.23Zm4-22.78L22.69,36c-1.59-.81-3.17-1.64-4.77-2.44a2,2,0,0,0-.84-.18c-1.68,0-3.35,0-5-.08-1.06-.05-2.23,0-2.86-1.19a1.36,1.36,0,0,0-.54,0c.37,1.58.82,3.07,1,4.6a1.36,1.36,0,0,0,1.71,1.41c2.23-.28,4.46-.56,6.68-.9,1.56-.24,3.11-.57,4.66-.86Zm40.7.94c5.37.83,10.73,1.68,15.75,3.92l2-3.27c-1.09-.4-2.11-.85-3.17-1.13a31.34,31.34,0,0,0-3.61-.66c-2.26-.31-4.53-.67-6.8-.82a4.09,4.09,0,0,0-3.08,1.28l4.31,1-.08.43Zm-48,12.41-.26.33c1.25,1.37,2.47,2.78,3.79,4.07A1.4,1.4,0,0,0,20.34,54a28.46,28.46,0,0,1,10-5.83,6.06,6.06,0,0,0,1-.54l-1-1.37C25.35,47.33,20.67,49.64,15.47,49.67ZM30.27,23.58c1.09.74,2,1.3,2.88,2,1,.86,2,1.82,3,2.78a55.83,55.83,0,0,1,4.55,4.8,7.52,7.52,0,0,1,.85,3.1,9,9,0,0,1,0,1.7,32.33,32.33,0,0,0,.14-5.13,4.37,4.37,0,0,0-.72-1.93c-1.26-2-2.52-4-3.91-6-1.2-1.67-2.56-3.22-4-5Zm7.44,30.26h-.39a86.26,86.26,0,0,0,0,16.22,12,12,0,0,0,3.15-4.16A3.53,3.53,0,0,0,41,64.06c-.2-2.91-.52-5.82-.8-8.8-.94.68-.89,2.23-2.5,2.21V53.85ZM65,24.82l-.26-.35c-1,.29-1.93.56-2.87.9a1,1,0,0,0-.43.62c-.52,1.58-.9,3.23-1.55,4.75-1.14,2.66-2.42,5.27-3.68,7.88a22.44,22.44,0,0,1-1.24,2c1.61-.91,3.38-1.75,4.39-3.14A36.72,36.72,0,0,0,65,24.82ZM30,76.92a5.52,5.52,0,0,1-.87-1.85c0-3.48.1-7,.2-10.44,0-.92.18-1.83.3-3-1,1.13-1.79,2-2.54,3a2.47,2.47,0,0,0-.53,1.22c-.17,1.86-.26,3.73-.37,5.6-.07,1.22-.19,2.45-.14,3.67s.27,2.68.45,4.34Zm-5.26-8.68-.48-.1c-2.62,4.48-4.6,9.12-3.62,14.61,1.09-.64,2.17-1.29,3.27-1.9a1.37,1.37,0,0,0,.64-1.64,42.65,42.65,0,0,1-.2-5.26c0-1.91.25-3.81.39-5.71ZM70.58,23.56a11.72,11.72,0,0,1-2.31.28c-1.35-.11-1.66.72-1.91,1.75s-.56,1.8-.76,2.71a8,8,0,0,0,0,1.6l-4,6.48C65.73,35,70.13,27.83,71,24.56h-.85ZM55.73,63c1,2.2,2,4.21,4.47,5a1.34,1.34,0,0,0,.77.14c.64-.67,1-.12,1.43.24,1.51,1.25,3.34,1.51,5.26,1.88V65.32L63,64.63c1.4.74,3.05.27,4,1.6C62.89,66.42,59.38,64.56,55.73,63ZM16,32.26,7.22,21.18c.24,2.58.4,4.9.69,7.2.12,1,0,2.21,1.31,2.52C11.45,31.4,13.71,31.81,16,32.26ZM46.63,67.45a3.58,3.58,0,0,0,.52-.85c.27-2.68.36-5.39.82-8,.64-3.67-2.29-5.55-3.79-8.18A13.72,13.72,0,0,0,44.4,53c.22,1.27.58,2.53.67,3.81.17,2.35.08,4.72.32,7.06A17.29,17.29,0,0,0,46.63,67.45Zm5-46a15.53,15.53,0,0,0-1.54,1.5c-.68.87-1.27,1.81-1.89,2.72-1.49,2.21-3,4.39-4.45,6.63A6.83,6.83,0,0,0,43,37.07c1.46-2.57,2.76-4.92,4.13-7.25a6.39,6.39,0,0,1,1.37-1.7c1.06-.88,2.28-1.57,3.33-2.45C53.14,24.57,53,22.77,51.61,21.42Zm-8.45,8.8a45.25,45.25,0,0,1,8.14-9.89.78.78,0,0,0,.28-.63c-.42-1-.9-2-1.48-3.25-3.1,4.47-6.68,8.28-6.93,13.77ZM49,40.53c.41-.16.91-.33,1.38-.53q1.62-.69,3.22-1.41a2.15,2.15,0,0,0,.92-.52,25.48,25.48,0,0,0,4.28-10.83c-1.73,1.15-3.49,1.94-3.67,4.35a6.89,6.89,0,0,1-1.46,3.29c-1.45,2-3.1,3.77-4.67,5.65ZM43.81,11.06c-1.93,1.43-3.58,2.63-5.18,3.9a1.1,1.1,0,0,0-.15,1c.73,1.73,1.55,3.42,2.3,5.14.4.92.7,1.88,1.11,3Zm3.87,35.7-.14.35a3.06,3.06,0,0,0,.4.44A9.59,9.59,0,0,1,51.18,51a1,1,0,0,0,.77.44,23.7,23.7,0,0,0,7.91-1.2A41,41,0,0,0,47.68,46.76ZM77.94,30.41c2.15.39,4.21.66,6.22,1.16s2,.61,3.36-1c.55-.66,1.23-1.21,1.81-1.85s.91-1.1,1.37-1.66A42.31,42.31,0,0,0,77.94,30.41ZM76.41,34l-1,.5L82.16,37l2.14-2.57a2.77,2.77,0,0,0-.69-.43c-1.82-.4-3.65-.78-5.48-1.17a20.89,20.89,0,0,1-2.1-.43,4.55,4.55,0,0,0-4.29,1.3ZM26.47,63l-.21-.35c-3.53,1.72-7,3.49-10.61,5.14a3.23,3.23,0,0,0-2.06,3.11,76.86,76.86,0,0,1,7.66-3.38C23.75,66.65,25.05,64.81,26.47,63Zm33.28,6.7,6,10.15c.4-1.8.87-3.85,1.28-5.91a1.13,1.13,0,0,0-.25-1c-2.29-1.12-4.62-2.17-7-3.27Zm18-45.38a21.71,21.71,0,0,1-3.12-.46c-1-.29-1.22.13-1.66.86-1.15,1.92-1.33,4.35-3.15,5.92a25.23,25.23,0,0,0-1.87,2C72.83,31.79,74.88,27.81,77.75,24.28Zm-34-1.86c2.12-2.3,3-5.31,5.72-6.94l.29-.58-4.66-3.08Zm23.44,60.7.32,0c.07-.31.15-.61.19-.92.18-1.42.39-2.83.52-4.26.26-2.85.54-5.7.68-8.56a38.39,38.39,0,0,0-.22-4.28,27.24,27.24,0,0,0-1.83-9.39,10.94,10.94,0,0,0-6.73-6.39l.42.37C62,51,63.6,52.15,65,53.48s1.74,3.21,2.07,5c.53,2.88,1.13,5.76,1.47,8.67.41,3.48-.66,6.81-1.45,10.15A12.68,12.68,0,0,0,67.19,83.11ZM26.48,35.46A28.58,28.58,0,0,1,24.25,32,7.12,7.12,0,0,0,18,27.57,4.6,4.6,0,0,0,18.55,29c1.21,1.37,2.48,2.69,3.73,4a3.13,3.13,0,0,1,.75.74A2.91,2.91,0,0,0,26.48,35.46Zm-3.86-7.3a25.65,25.65,0,0,0-7.87-5.37C11.89,21.47,9,20.25,6.09,19L6,19.35c.32.07.64.12,1,.21a1.79,1.79,0,0,1,.86.32,18.89,18.89,0,0,0,6.48,4.59c2.73,1.35,5.56,2.48,8.35,3.71Zm26.9,42.47a2.41,2.41,0,0,0,.31-.61c.34-2.29,1.14-4.54.62-6.92a4.76,4.76,0,0,1,.11-1.57c.21-1.55.2-3-1.19-4.2-.11,2.41-.17,4.71-.34,7a8.73,8.73,0,0,1-.66,2.61C47.67,68.65,47.84,69.42,49.52,70.63Zm7.94,5.67c1.29-2.61.23-7.9-2.18-10.35,0,.54,0,.94,0,1.33a32.91,32.91,0,0,1,.13,5.26C55.17,74.4,55.51,75.67,57.46,76.3ZM86.8,25.84l0-.18-6.38-1c-.66-.11-2.41,1.29-2.08,1.66.74.85-.15.83-.43,1.08-.7.63-1.45,1.21-2.23,1.85ZM27.66,50.5v.13a17.44,17.44,0,0,1,3.62-.35A16.44,16.44,0,0,0,37,50c2.09-.51,2.61-1,2.59-3.24ZM53,67.93a3.64,3.64,0,0,0,.82-1c.43-1.32-.62-4.67-1.87-5.81.31,3.8.48,7.44-.81,11l2.11,1.5c.43-2.11.69-4-.25-5.75ZM17.9,54.35c-.79-1-1.46-1.85-2.16-2.7-2.7-3.29-5-6.8-6-11-.82-3.42-1.56-6.85-2.32-10.28-.12-.52-.18-1-.27-1.57l-.34.06c.32,1.8.74,3.6.93,5.41.46,4.25,2,8.16,3.55,12.08A18.23,18.23,0,0,0,17.9,54.35Zm2.66-20.77a7.26,7.26,0,0,1-.84-.71c-1.64-1.86-3.57-3.55-3.85-6.26a.8.8,0,0,0-.39-.52c-1.59-.83-3.19-1.63-4.9-2.49C13.55,27.37,16,31.46,20.56,33.58ZM41.88,62.42l.18.11a18.07,18.07,0,0,0,.88-3.25c.2-2.38.23-4.78.28-7.18A19.23,19.23,0,0,0,43,49.85c-.63,1.28-1.16,2.29-1.61,3.33a2.3,2.3,0,0,0-.08,1.15c.06.46.31.89.34,1.35C41.74,57.92,41.8,60.17,41.88,62.42Zm-7.13-44.3c3,2.69,4.8,6,7,9.06a26.56,26.56,0,0,0-5.54-10.06ZM59.92,73.84c-.17,1.21-.35,2.41-.49,3.63a1,1,0,0,0,.2.76c1.5,1.22,3,2.41,4.54,3.6l.33-.31Zm-27.13-37a69,69,0,0,1-4.08-5.71c-1.33-2.28-.75-4.72.24-7C26.2,28.8,27.77,35.06,32.79,36.85Zm1-17.75L41.5,29.83C38.83,23.89,35.86,19.68,33.79,19.09ZM14.72,48.74c5.62.42,10.48-2.33,15.67-3.68Zm33.45-9c3.9-2.79,6.48-6.65,5.91-9a24,24,0,0,1-5.91,9Zm37.1-6.42.08-.55a21.11,21.11,0,0,0-8.45-1.5Zm-49,37.17V57.72C35.87,62,35.31,66.27,36.28,70.53Zm18.89-28.6-.22-.3-6.28,4.25a2.26,2.26,0,0,0,2.46-.7C52.36,44,53.81,43,55.17,41.93ZM67,23.28c4.39-1.24,8.71,0,13.05.25C77.46,22.58,69.9,22.3,67,23.28ZM49.92,43.89l-4.47,1.17C46.51,46.5,47.81,46.1,49.92,43.89ZM29.49,23l4.85-5.84C32.42,18.89,30.34,20.47,29.49,23Zm35,56.8.2-.08-3.93-6.91-.33.19ZM34.86,54.52l.45.38L38.55,51l-.28-.23ZM27.37,37c1.38,1.32,4.13,2.35,4.84,1.87ZM48.78,50.89l-3.31-2.23C46.43,50.51,47.26,51.1,48.78,50.89Zm12.35.82-.1-.63-5.25,1,0,.19ZM59,71.7h-.36v5.2C58.75,75.17,59.74,73.46,59,71.7Zm-8.49-19.1.32-.23-1.34-2.55-.17,2.46ZM19.06,83.5l.42,0c0-1.1,0-2.2,0-3.3s.17-2.27.26-3.4l-.31,0ZM53.28,39.84l-.16-.26-2.63,1,1.62.6ZM18.82,69.2l.2.46,3.53-1.52-.17-.4ZM25.9,41.44v-.29L20.58,42l0,.28ZM10.31,39l.06.48,3.9-.57,0-.29Zm7.81,35.49.24.17,3.28-4.29-.15-.11Zm4.35-21-.29-.25L20,55.59l.33.3ZM54.22,25.72H54V29.4h.19ZM34,45.22l.05.31c.89-.25,1.95.44,2.88-.79ZM29.06,56.49l-.14-.24-3.67,1.23.11.32Zm9.46-2.6v2.22l1-1.14ZM31,24.9l-.26.26L33,27.08l.23-.28Zm56.26,7.44.2.13,2.67-3-.18-.16ZM37.39,16.16l-.53.32,1.6,2.1.26-.16ZM76.79,30l-.13-.21-3.24,1.46.14.29ZM65.17,71.09l2.06,1,.23-.54C67,70.69,65.82,71.53,65.17,71.09ZM54.54,72.28h.13V67.92h-.13ZM34,43.57,34,44l2.54-.3,0-.33Zm1.14-4.3-.2.22,2.67,2.12.11-.15Z" transform="translate(-4.75 -8.22)"/><path d="M28.72,35c.11.43.31.94-.51.72L25.55,32l.34-.26,2.53,2.94Z" transform="translate(-4.75 -8.22)"/></svg>