<svg id="Layer_1" data-name="Layer 1" xmlns="http://www.w3.org/2000/svg" viewBox="0 0 94.13 69.34"><title>noun_Glasses_1388652</title><path d="M17.6,46.9a19.5,19.5,0,0,0,4.2,0c5.5-.5,10.3,1.1,13.8,5.6.8,1,1.8,1.7,2.6,2.7a14,14,0,0,1,3,8.3c.9.1,1.1-.5,1.2-1a5.34,5.34,0,0,1,5.1-4.1,28.15,28.15,0,0,1,4.1-.2c2.7.2,4.2,1.8,5,4.2a8.47,8.47,0,0,1,.4,1.7c.2,1.2,1.2,1.1,2,1.3s.9-.6,1.1-1.1A30.57,30.57,0,0,1,64.6,57a15.27,15.27,0,0,1,3.3-2.9,38.63,38.63,0,0,1,5.7-3,8.61,8.61,0,0,1,6.5-.3,8.8,8.8,0,0,0,1.5.5c2.6.3,5.1.5,7.4,2.1a21.42,21.42,0,0,0-1.4-5.8c-.9-2.3-2.2-4.5-2.7-7a3.38,3.38,0,0,0-.6-1.2,13,13,0,0,1-1.8-4.2,61.23,61.23,0,0,0-4.3-11c-.5-1-1-1.7-2.3-1.7s-2.4-1.8-2.1-3.1c.1-.5.4-1,.8-1,1.2.1,2.4-.9,3.7.4a7.7,7.7,0,0,1,2.3,4A28.68,28.68,0,0,0,82.8,29c2.6,6.3,4.9,12.7,7.3,19.1a52.86,52.86,0,0,0,3.6,8.5c.2.3.3.8.5.9,2.2,1.4,2.5,3.7,2.9,5.9a21.91,21.91,0,0,1,.4,5.7,20.12,20.12,0,0,1-2.1,6.7,16.46,16.46,0,0,1-10.1,8.3c-2.4.8-4.8,1.8-7.5,1.7-4.1-.2-8.1-.6-11.4-3.2-2.5-.3-2.8-2.7-4.1-4.2-2.4-2.9-2.8-6.3-2.4-9.9.1-1-.2-1.6-1.4-1.7a5.09,5.09,0,0,1-4.6-5,2,2,0,0,0-3.1-1.7c-.8.5-1.4,1-2.2-.1-.3-.5-1,0-1.4.3a8.65,8.65,0,0,0-3,3.8A2.34,2.34,0,0,1,42,65.9c-1.1.1-1.5.8-1.7,1.7a16.17,16.17,0,0,1-6.5,9.9c-4.4,3-9.2,5.2-14.8,3.9a22,22,0,0,0-3.7-.7,7.72,7.72,0,0,1-4.6-2C7.7,76,4.9,73.1,3.8,69a5,5,0,0,1-.3-2.4,21.42,21.42,0,0,0,.7-4.3c.3-2.5,1.5-4.7,2.3-7.1.2-.5.4-1.2,1-1.4,2-.7,2.7-2.9,4.5-3.8,1.8-3.4,5-5.7,7.2-8.8a92,92,0,0,1,6.9-8.3C28.6,30,31,27,33.5,24.1a53,53,0,0,1,5.9-5.7,7.76,7.76,0,0,1,5.7-1.9,6.11,6.11,0,0,1,1.3.3,1.42,1.42,0,0,1,.9,1.6c-.1.6-.6.8-1.2.8-1,.1-2,.3-3,.3A4,4,0,0,0,40,20.9,194.47,194.47,0,0,0,26,37a9.53,9.53,0,0,1-2.6,2.7c-.2.1-.4.4-.6.6A44.21,44.21,0,0,1,17.6,46.9ZM37.4,57c-.4.6,0,1.5-.8,2a1.41,1.41,0,0,1-.2-1.5,3.74,3.74,0,0,0-1.6-3.8c-.6-.5-1.7-.4-2.1-1.1-.8-1.6-2.4-1.8-3.8-2.3a.35.35,0,0,0-.2.1c0,.7,1.2.5,1.1,1.4-1.8-.7-3.5-1.5-5.3-2.2a4.36,4.36,0,0,0-4.4.4l-.4.2c-.6-.7.4-.8.2-1.3a1.22,1.22,0,0,0-1.3,0,21,21,0,0,0-9.5,7.9c-.2.2-.1.7-.7.7-1,0-1.3.1-1.2.8A18.84,18.84,0,0,1,7,61.7c-.2,3.9,1,7.6,2,11.2a3,3,0,0,0,2.3,2.4,6.36,6.36,0,0,1,2.2,1.4c2.1,1.3,3.9,3.1,6.7,3a22,22,0,0,0,7.2-1.5c5.7-2.2,9.4-6.1,10.9-12,.2-.7.4-1.4-.2-1.9-.9-.7-.7-1.6-.6-2.6a31.25,31.25,0,0,1,.4-4.3C38,57.3,37.8,57.1,37.4,57ZM61.5,70.6a7.3,7.3,0,0,0,1.8,5.7,42.36,42.36,0,0,1,3.3,3.9,4.53,4.53,0,0,0,2.5,1.6c2.1.5,4.2.7,6.3,1.2,4,1.1,7.8,0,11.2-1.8A17,17,0,0,0,95,70.9a8.32,8.32,0,0,0-.1-5.4,22.26,22.26,0,0,1-1.3-4.4c-.3-1.2-.4-2.5-2.2-2.4-.3,0-.6-.5-1-.8a9.62,9.62,0,0,0-1.7-1.3c-2.3-1-4.6-2-6.9-2.9a8.29,8.29,0,0,0-5.8-.2,16.67,16.67,0,0,1-2,.8,12.66,12.66,0,0,0-7.2,4,21.4,21.4,0,0,0-4.6,6.9C61.2,67,62.4,69.1,61.5,70.6Zm8.9,12.7c.4-.2.9.8,1.8.2C71.5,83,70.8,83.5,70.4,83.3ZM87.5,54.9A2,2,0,0,0,85,53.8C86,54.2,86.7,54.6,87.5,54.9ZM6.3,68.8a3.52,3.52,0,0,0-.5-2.7A3.52,3.52,0,0,0,6.3,68.8Zm-.7-6.2a3.31,3.31,0,0,0,0,2.2A3.31,3.31,0,0,0,5.6,62.6Z" transform="translate(-3.43 -16.47)"/><path d="M16.4,63.8c3.2-2.4,6.3-4.8,9.5-7.2a89.81,89.81,0,0,0-10,5.8c-.7-.9.8-1.2.4-2.1-.9-.3-1.4,1.2-2.4.9-.2-.5.2-.7.5-.9.8-.6,1.6-1.1,2.3-1.7,1.7-1.3,3.7-2.4,4.9-4.3.1-.2.3-.3.5-.5,1.2-1.3,2.6-2,4.5-1-2.3,2.1-5.1,3.8-7.5,6.2,1.1,0,1.6-.6,2.3-.9,2.5-1.5,5.1-3,7.6-4.5a2.59,2.59,0,0,1,2.4-.5.76.76,0,0,1-.3.8C27.6,56.9,18.6,63.1,16.4,63.8Z" transform="translate(-3.43 -16.47)"/><path d="M30.9,56.3,23.7,62c2.7-.8,4.9-2.7,7.8-3.1a1.24,1.24,0,0,1-.6,1.5c-3.8,3-7.4,6.4-11.4,9.2-.1-.1-.2-.3-.3-.4,3-2.6,6.1-5.2,9.1-7.8-2.1.4-3.7,1.6-5.4,2.5-1.8,1.1-3.7,2.2-5.4,3.4a54.33,54.33,0,0,1-5.1,3.2C13.5,68.8,28,57.4,30.6,55.9A1.38,1.38,0,0,0,30.9,56.3Z" transform="translate(-3.43 -16.47)"/><path d="M18.2,74.7c-.2-1.2.5-1.6,1.1-2,2.5-1.9,5.1-3.7,7.6-5.6,1.2-.9,2.9-1.2,3.1-3.1.1-.4.8-.5,1.1-.2.5.4.1.8-.2,1.1A12.67,12.67,0,0,1,29.6,66C25.9,69,21.8,71.3,18.2,74.7Z" transform="translate(-3.43 -16.47)"/><path d="M15.4,56.1a23.12,23.12,0,0,1,6-4.2C21,53.1,18.9,54.6,15.4,56.1Z" transform="translate(-3.43 -16.47)"/><path d="M13,57.9c.4-.7.8-1,1.3-1C14.2,57.5,13.8,57.7,13,57.9Z" transform="translate(-3.43 -16.47)"/><path d="M76.3,65.5c2-1.5,4-2.9,6.1-4.5-.7-.3-1.1.2-1.6.4-5.3,2.7-10.3,5.9-15.5,8.8-.5.3-1,.9-2.1.4,2.4-2.8,5.9-4.1,8.8-6.7-1.6.3-2.6,1.2-3.8,1.7s-1.9,2.2-3.6.8c-.3-.2-.9.9-1.7.8a1.6,1.6,0,0,1,.8-2.1c4.6-2.7,9.3-5.3,13.9-8.1a36.11,36.11,0,0,1,4.9-2.1c-.5,1.1-.5,1.2-3.3,2.9-1.2.8-2.5,1.4-3.7,2.3,2.5-.3,4.3-2.5,6.9-2.5-3.2,2.8-6.9,4.8-10.4,7.2.8.4,1.2-.2,1.6-.4,3-1.6,6-3.2,9-4.7a3.89,3.89,0,0,1,3-.7c-.3,1.2-1.2,1.6-2,2.2-1.8,1.4-3.9,2.3-5.5,4l.1-.1c-.7-.1-1.1.6-1.8.5Zm-10.8-.3c2,.4,3.3-.8,4.8-1.7,3.5-2.1,3.4-2.1,3.7-3.3C71.1,61.9,68.3,63.5,65.5,65.2Z" transform="translate(-3.43 -16.47)"/><path d="M82.5,76c1.2.3,2-1,3.1-.6a12.6,12.6,0,0,1-6.8,3c.9-1.7,2.6-2.5,3.9-3.7s2.7-2.3,4-3.5c-4.2,1.1-7.8,3.5-12,4.9,1.4-1.9,3.5-2.8,5.2-4.1A20.1,20.1,0,0,0,85,67.4c-2.2,1.2-4.5,2.2-6.6,3.5-2,1.1-3.9,2.2-6,3.2a.76.76,0,0,1-1,0,.61.61,0,0,1-.1-.6c.2-.4.4-.4.9-.5a8.68,8.68,0,0,0,3.9-1.8,63.91,63.91,0,0,1,9.3-5c.6-.3,1.5-.9,2-.1s-.4,1.3-.9,1.8c-1.5,1.2-3,2.4-4.8,3.8,1.5,0,2.3-.8,3.3-1.1a20.16,20.16,0,0,1,2.3-.7c.4,0,.8-.1,1,.3s0,.7-.2,1A28,28,0,0,1,85,74,9.58,9.58,0,0,0,82.5,76Z" transform="translate(-3.43 -16.47)"/><path d="M78.1,65.1c1.8-.1,3.2-1.4,4.8-2.1,1.3-.6,2.5-1.3,3.7-1.9a1,1,0,0,1,1.2-.2c.2.5-.1.7-.3.9-1.7,1.2-3.1,2.6-5.5,2.8-2,.1-3.7,1.6-5.5,2.6-1.4.7-2.7,1.5-4,2.3-.8.5-1.3.2-2-.4a25.89,25.89,0,0,1,5.9-3.8l.1.2a8.79,8.79,0,0,1-.5,1c.9-.5,1.8-.5,2.1-1.4Z" transform="translate(-3.43 -16.47)"/><path d="M67,72.2a2.4,2.4,0,0,1,1.8-1.7C68.9,72.1,67.8,71.9,67,72.2Z" transform="translate(-3.43 -16.47)"/></svg>