<svg id="Layer_1" data-name="Layer 1" xmlns="http://www.w3.org/2000/svg" viewBox="0 0 88.29 93.99"><title>noun_lamp_2645611</title><path d="M67.22,74.81c2,3.3,1.84,4.12-1.14,6.63.72,3.2.11,4.66-2.64,6.63a3.84,3.84,0,0,0-.81,1.24c-.69,1.17-1.38,2.34-2,3.54A2.84,2.84,0,0,0,60.27,94c-.07,1.68-.64,2.45-2.34,2.72a13.83,13.83,0,0,1-3.23.21c-1.77-.14-3.38-1.08-3.16-3.2a1.68,1.68,0,0,0-.28-1.15,7.93,7.93,0,0,1-2.18-5.14,1.11,1.11,0,0,0-.51-.7c-1.95-1.33-2.45-3.3-2.58-5.49a3.46,3.46,0,0,0-.48-1.7c-1.75-2.54-1.77-2.81.2-5.29-1.1-.9-2.18-1.82-3.3-2.69-3.87-3-7.82-5.92-10.62-10C28.59,56.89,26,52,25.5,46.19c-.62-6.84,1.26-12.72,6.19-17.57,2.94-2.89,5.79-5.94,9.81-7.34A35.7,35.7,0,0,1,57,19.22a29.67,29.67,0,0,1,11.19,3.14c3.76,2,7.18,4.48,9.51,8.34a28.55,28.55,0,0,1,4.46,16.72c-.33,5.53-.66,11.14-3.69,16a32.54,32.54,0,0,1-7.55,8.25C69.64,72.7,68.47,73.75,67.22,74.81Zm-5.64-.4c3.24,0,3.92-.28,6.08-2.2.77-.68,1.65-1.24,2.43-1.91,3.05-2.63,6.22-5.29,7.8-9.05a34.28,34.28,0,0,0,1.47-23.67c-2.45-8.14-8.11-13.06-16-15.56a26.05,26.05,0,0,0-12.75-1.25c-3.11.58-6.39,1-9.23,2.23A27.17,27.17,0,0,0,28.75,35.12C26.23,39.73,26,44.8,27.51,49.93c1.68,5.81,4.36,11,8.83,15.14,3,2.71,6.29,5,9.32,7.63,1.3,1.13,2.67,1.32,4.64,1.35-.11-1.86-.17-3.59-.34-5.31a7.24,7.24,0,0,0-.57-1.91c-1.85-4.67-3.63-9.38-5.65-14-.44-1-.88-1.67.11-2.45a8.25,8.25,0,0,1-1.32-1.82,3.78,3.78,0,0,1-.24-2.42,2.09,2.09,0,0,1,1.94-.67,3.63,3.63,0,0,1,1.87,1.77c.3.67,0,1.61,0,2.42a1.75,1.75,0,0,0,.57,1.07c.17.14.61,0,.94-.08a4.37,4.37,0,0,0-.23-1.09,4.61,4.61,0,0,1,0-4.3,1.64,1.64,0,0,1,1.31-.7A2.51,2.51,0,0,1,50.93,48c-.26.77-.59,1.51-.89,2.27a1.88,1.88,0,0,0,2.55,0c1-.68.25-1.36.13-2.05a4.81,4.81,0,0,1-.17-1.66c.13-.63.53-1.71.79-1.7a3.13,3.13,0,0,1,2.1.84,3.3,3.3,0,0,1,.22,3.9c-.15.29-.09,1,.1,1.08a1.63,1.63,0,0,0,1.28.11c.24-.09.42-.65.41-1a7.84,7.84,0,0,0-.38-1.32c-.27-1.22-.64-2.52.7-3.34,1-.62,2.21.14,3.12,1.78,0,.07.16.1-.06,0,.75-.76,1.36-1.88,2.14-2s1.76.67,2.38,1.32c.83.88.38,1.92-.22,2.82-.38.58-.78,1.15-1.42,2.08.86-.12,1.64,0,1.78-.29.46-.85,1.14-.92,1.58-.37a2.42,2.42,0,0,1,.15,1.88c-.21.76-.84,1.4-1.09,2.16C64.85,58.32,63.53,62.1,62.5,66,61.77,68.66,60.34,71.36,61.58,74.41ZM49.19,51.69a6.33,6.33,0,0,1-2.12.95c-.63,0-1.27-.55-1.93-.87,1.34,3.16,2.77,6.11,3.84,9.18,1.38,4,2.47,8,3.71,12,.13.42.37,1.09.63,1.13,1.74.23,3.5.32,5,.43L64.65,53l-2.14-1.11a10.43,10.43,0,0,1-3.24.35,2.89,2.89,0,0,0-1.15.07,3.15,3.15,0,0,1-3.46-.4,1.47,1.47,0,0,0-1.31-.15A3.5,3.5,0,0,1,49.19,51.69ZM48.9,79l.16-.8.24-1.14a8,8,0,0,1,1,.8,7.54,7.54,0,0,1,.67,1l1.4-1c.31.49.66,1,.93,1.46.19.36.17.84.4,1.15s.62.41,1.19.76v-3a13.66,13.66,0,0,0,2.37.54c1.14,0,1.73.42,1.71,1.66,0,.27.49.55.76.82a3.53,3.53,0,0,0,.55-.9c.07-.27-.19-.63-.11-.89s.43-.83.58-.8a21.26,21.26,0,0,1,2.46.71l-1.62,1.37c2.36.59.79-2.14,2.35-2.09l.89,1.41c1.42-.46,2.16-1.34,1.93-2.79S65.32,76,64.13,76c-3.94,0-7.87-.23-11.81-.28A32.13,32.13,0,0,0,47,76c-1.13.18-1.23,1-.55,1.85l.79-.89Zm14.85,6.25.11.38a4.75,4.75,0,0,0,.62-1.05,12.9,12.9,0,0,0,.28-1.74,11.13,11.13,0,0,0-1.67-.2c-1.48,0-3,.29-4.45.2-3.7-.23-7.5.34-11.05-1.35l-.34.34L49,85.69l.65-1.75c.38.28.75.56,1.13.82.6.41,1.21.8,1.89,1.25l.28-2.16.67-.09a14,14,0,0,1,.6,2.43c.08,1.1.52,1.46,1.71,1.17,0-.73-.05-1.45,0-2.15.1-1,.28-1,1.78.51,1.15-.94,1.48-.82,1.79.64.15.72.25,1.45,1,1.32a8.39,8.39,0,0,1-.18-1.54C61.44,85.79,62.6,85.54,63.75,85.26Zm-2.52,4.47L50.81,88.51l.64,2.17c1.09-.83,1.41-.71,1.84.54s.43,1.25,1.57.95a4.29,4.29,0,0,1-1.12-.79c-.13-.18.15-.92.16-.92,1.63.28,3.26.6,4.88.93l0,.52Zm1.9-40.81.29.11.7-2.25-.81-.18Zm-4.33.32c1.12-1,1-1.87-.31-2.56Zm-10.08-.47.32,0a11.38,11.38,0,0,0,.61-1.8c0-.23-.33-.52-.52-.79-.24.22-.68.44-.68.66A11.45,11.45,0,0,0,48.73,48.78Zm-4.48.13.65-.2-.55-1.86-.68.21Z" transform="translate(-5.86 -3)"/><path d="M13.29,48.17l-2.54-1.3c-1.42-.73-2.85-1.43-4.24-2.22-.32-.18-.45-.69-.66-1.06.31-.1.7-.37.93-.27q3.75,1.64,7.44,3.4c.17.08.31.67.22.75A5.92,5.92,0,0,1,13.29,48.17Z" transform="translate(-5.86 -3)"/><path d="M36.68,5.35l.67-.74c.32.29.85.54.92.89.24,1.2.29,2.43.49,3.64a23.43,23.43,0,0,1,.55,2.52c0,.42-.47.87-.73,1.31-.26-.36-.68-.69-.76-1.08C37.41,9.78,37.08,7.67,36.68,5.35Z" transform="translate(-5.86 -3)"/><path d="M92.21,30.37l1,.79c-.26.26-.48.67-.79.75-1.83.5-3.66,1-5.52,1.32-.43.08-1-.4-1.46-.62.38-.29.72-.74,1.15-.85C88.39,31.25,90.23,30.84,92.21,30.37Z" transform="translate(-5.86 -3)"/><path d="M8.59,27.91c2.58.21,7.67,4.86,7.15,6.64-.85-.69-1.61-1.31-2.37-1.94-1.37-1.14-2.75-2.27-4.08-3.45A4.89,4.89,0,0,1,8.59,27.91Z" transform="translate(-5.86 -3)"/><path d="M22.35,14.27c.49.26,1.23.39,1.44.8,1,1.87,1.79,3.8,2.61,5.74.12.28-.09.7-.14,1-.35-.22-.86-.35-1-.67-.59-1.08-1-2.22-1.58-3.33s-1-2.07-1.57-3.1Z" transform="translate(-5.86 -3)"/><path d="M51.59,7.82c.09-1.15.16-2.48.33-3.8,0-.36.42-.68.64-1,.26.37.76.74.75,1.11,0,1.73-.16,3.47-.37,5.19,0,.41-.52.77-.79,1.15a6.89,6.89,0,0,1-.55-1.23A6.73,6.73,0,0,1,51.59,7.82Z" transform="translate(-5.86 -3)"/><path d="M87.87,50.64c-.29-.22-.69-.39-.84-.69-.07-.14.27-.7.5-.76,1.87-.47,3.76-.9,5.66-1.23.28,0,.75.42.94.75.07.13-.34.78-.59.82-1.85.3-3.72.51-5.59.74Z" transform="translate(-5.86 -3)"/><path d="M20.29,62.89c.25.17.6.29.69.51a.83.83,0,0,1-.3.73Q18,65.82,15.34,67.41c-.21.12-.77.05-.81-.05-.1-.29-.14-.81,0-.94a43.7,43.7,0,0,1,3.57-2.62A13,13,0,0,1,20.29,62.89Z" transform="translate(-5.86 -3)"/><path d="M84,18.63c-.1.32-.09.74-.3.92-1.18,1-2.39,2-3.64,3a1.66,1.66,0,0,1-1.09.16c-.09,0-.23-.54-.18-.79C79.13,20.28,82.19,18.29,84,18.63Z" transform="translate(-5.86 -3)"/><path d="M32,74.67,28.57,82.5C27.77,79.8,29.88,74.8,32,74.67Z" transform="translate(-5.86 -3)"/><path d="M66.61,10.82c.43-1.43.73-2.63,1.19-3.77.11-.28.73-.35,1.12-.51.11.38.37.78.31,1.13a23.71,23.71,0,0,1-.81,3.11A6,6,0,0,1,67.63,12Z" transform="translate(-5.86 -3)"/><path d="M89.5,65.7c-1.54,0-2.92.08-4.28,0-.47,0-.91-.57-1.36-.88a5.56,5.56,0,0,1,1.45-.5,28.84,28.84,0,0,1,4,0c.41,0,.78.57,1.16.87Z" transform="translate(-5.86 -3)"/><path d="M80.79,81.12c-1.28-.82-2.6-1.59-3.82-2.49a6.78,6.78,0,0,1-1.48-1.76c-.14-.21,0-.63.07-1,.32,0,.77-.05.95.13,1.5,1.54,3,3.13,4.42,4.7Z" transform="translate(-5.86 -3)"/><path d="M79,45.29a11.63,11.63,0,0,1,0,1.85c-.05.31-.4.58-.61.87-.25-.3-.74-.6-.73-.89a21.81,21.81,0,0,0-1.59-8.57c-.49-1.29-1.13-2.52-1.63-3.81a7.14,7.14,0,0,1-.23-1.62c.48.27,1.16.42,1.42.83A22.1,22.1,0,0,1,79,45.29Z" transform="translate(-5.86 -3)"/><path d="M78.42,53.79a28.81,28.81,0,0,1-.91,3.49c-.16.39-.81.58-1.24.87A3.91,3.91,0,0,1,76,56.83a20.46,20.46,0,0,1,.71-3,4.14,4.14,0,0,1,.74-1Z" transform="translate(-5.86 -3)"/></svg>