<!-- Generator: Adobe Illustrator 21.0.2, SVG Export Plug-In  -->
<svg version="1.1"
	 xmlns="http://www.w3.org/2000/svg" xmlns:xlink="http://www.w3.org/1999/xlink" xmlns:a="http://ns.adobe.com/AdobeSVGViewerExtensions/3.0/"
	 x="0px" y="0px" width="4814.247px" height="1770.689px" viewBox="0 0 4814.247 1770.689"
	 style="enable-background:new 0 0 4814.247 1770.689;" xml:space="preserve">
<style type="text/css">
	.st0{fill:none;}
	.st1{stroke:#000000;stroke-width:34;stroke-miterlimit:10;}
	.st2{fill:#FFFFFF;stroke:#000000;stroke-width:34;stroke-miterlimit:10;}
	.st3{clip-path:url(#SVGID_2_);}
	.st4{font-family:'AvenirNext-Bold';}
	.st5{font-size:500px;}
	.st6{letter-spacing:319;}
	.st7{letter-spacing:301;}
	.st8{letter-spacing:316;}
	.st9{letter-spacing:307;}
	.st10{font-size:1296px;}
	.st11{letter-spacing:-23;}
	.st12{clip-path:url(#SVGID_4_);}
</style>
<defs>
</defs>
<g>
	<g>
		<rect x="305" y="1113.998" class="st0" width="4182" height="429.75"/>
		<path class="st1" d="M618.752,1246.996c0,20.672-3.836,38.086-11.5,52.25c-7.672,14.172-18,25.586-31,34.25c-13,8.672-28,15-45,19
			s-34.672,6-53,6h-42.5v133.5h-85.5v-354h130c19.328,0,37.414,1.922,54.25,5.75c16.828,3.836,31.5,10,44,18.5
			s22.328,19.672,29.5,33.5C615.166,1209.582,618.752,1226.668,618.752,1246.996z M533.252,1247.496c0-8.328-1.672-15.164-5-20.5
			c-3.336-5.328-7.836-9.5-13.5-12.5c-5.672-3-12.086-5-19.25-6c-7.172-1-14.586-1.5-22.25-1.5h-37.5v83.5h36c8,0,15.664-0.664,23-2
			c7.328-1.328,13.914-3.664,19.75-7c5.828-3.328,10.414-7.75,13.75-13.25C531.58,1262.746,533.252,1255.832,533.252,1247.496z"/>
		<path class="st1" d="M1178.751,1491.996l-76.859-140.5h-29.141v140.5h-83.5v-354h135c17,0,33.578,1.75,49.75,5.25
			c16.164,3.5,30.664,9.422,43.5,17.75c12.828,8.336,23.078,19.336,30.75,33c7.664,13.672,11.5,30.672,11.5,51
			c0,24-6.5,44.172-19.5,60.5c-13,16.336-31,28-54,35l92.5,151.5H1178.751z M1175.251,1246.496c0-8.328-1.766-15.078-5.281-20.25
			c-3.516-5.164-8.039-9.164-13.562-12c-5.531-2.828-11.727-4.75-18.594-5.75s-13.484-1.5-19.844-1.5h-45.719v82.5h40.695
			c7.031,0,14.234-0.578,21.609-1.75c7.367-1.164,14.062-3.25,20.094-6.25s10.969-7.328,14.82-13
			C1173.322,1262.832,1175.251,1255.496,1175.251,1246.496z"/>
		<path class="st1" d="M2008.749,1313.496c0,28-4.836,53.586-14.5,76.75c-9.672,23.172-23.086,43-40.25,59.5
			c-17.172,16.5-37.586,29.25-61.25,38.25c-23.672,9-49.336,13.5-77,13.5c-27.672,0-53.25-4.5-76.75-13.5s-43.836-21.75-61-38.25
			c-17.172-16.5-30.586-36.328-40.25-59.5c-9.672-23.164-14.5-48.75-14.5-76.75c0-28.328,4.828-53.914,14.5-76.75
			c9.664-22.828,23.078-42.25,40.25-58.25c17.164-16,37.5-28.328,61-37c23.5-8.664,49.078-13,76.75-13c27.664,0,53.328,4.336,77,13
			c23.664,8.672,44.078,21,61.25,37c17.164,16,30.578,35.422,40.25,58.25C2003.913,1259.582,2008.749,1285.168,2008.749,1313.496z
			 M1917.249,1313.496c0-15.328-2.5-29.664-7.5-43c-5-13.328-11.922-24.75-20.75-34.25c-8.836-9.5-19.5-17-32-22.5
			s-26.25-8.25-41.25-8.25s-28.672,2.75-41,8.25c-12.336,5.5-23,13-32,22.5s-15.922,20.922-20.75,34.25
			c-4.836,13.336-7.25,27.672-7.25,43c0,16,2.5,30.75,7.5,44.25s11.914,25.086,20.75,34.75c8.828,9.672,19.414,17.25,31.75,22.75
			c12.328,5.5,26,8.25,41,8.25s28.664-2.75,41-8.25c12.328-5.5,23-13.078,32-22.75c9-9.664,16-21.25,21-34.75
			S1917.249,1329.496,1917.249,1313.496z"/>
		<path class="st1" d="M2555,1414.996c-3.172,15.336-9,29.422-17.5,42.25c-8.5,12.836-20.336,23.422-35.5,31.75
			c-15.172,8.328-34.75,12.5-58.75,12.5c-30,0-55-7.75-75-23.25s-33.336-35.414-40-59.75l75.5-25.5
			c2.328,9.336,6.578,16.836,12.75,22.5c6.164,5.672,13.75,8.5,22.75,8.5c14,0,23.25-4.828,27.75-14.5
			c4.5-9.664,6.75-22.328,6.75-38v-233.5h86v233C2559.75,1384.996,2558.164,1399.668,2555,1414.996z"/>
		<path class="st1" d="M2949.746,1491.996v-354h238v72h-155.5v67h147v68.5h-147v73.5h164.5v73H2949.746z"/>
		<path class="st1" d="M3825.742,1485.746c-23,10.5-49.5,15.75-79.5,15.75c-27.336,0-52.586-4.5-75.75-13.5
			c-23.172-9-43.25-21.75-60.25-38.25s-30.336-36.25-40-59.25c-9.672-23-14.5-48.328-14.5-76c0-28.328,4.914-54,14.75-77
			c9.828-23,23.414-42.578,40.75-58.75c17.328-16.164,37.664-28.578,61-37.25c23.328-8.664,48.5-13,75.5-13
			c25,0,49.578,4.422,73.75,13.25c24.164,8.836,43.75,21.75,58.75,38.75l-58,58c-8-11-18.5-19.164-31.5-24.5
			c-13-5.328-26.336-8-40-8c-15,0-28.75,2.75-41.25,8.25s-23.25,13.086-32.25,22.75c-9,9.672-16,21.086-21,34.25
			c-5,13.172-7.5,27.586-7.5,43.25c0,16,2.5,30.672,7.5,44c5,13.336,11.914,24.75,20.75,34.25c8.828,9.5,19.414,16.922,31.75,22.25
			c12.328,5.336,25.828,8,40.5,8c17,0,31.828-3.328,44.5-10c12.664-6.664,22.828-15.328,30.5-26l59.5,56
			C3868.07,1460.996,3848.742,1475.246,3825.742,1485.746z"/>
		<path class="st1" d="M4387.744,1210.996v281h-85.5v-281h-100v-73h285.5v73H4387.744z"/>
	</g>
	<g>
		<rect x="143.624" y="144.072" class="st0" width="4513.08" height="1399.676"/>
		<path class="st2" d="M1020.593,1123.844L819.718,799.688l-193.109,324.156H362.218L683.64,638.906l-295.5-433.062h266.984
			l171.062,286l168.484-286h257.906L962.28,638.906l331.766,484.938H1020.593z"/>
		<path class="st2" d="M1378.665,1123.844v-918h617.047v187h-403.047v173h381.016v178h-381.016v191h426.375v189H1378.665z"/>
		<path class="st2" d="M2748.221,1123.844L2379.33,523.516h-3.891l4.891,600.328h-215v-918h252.406l367.594,599.031h3.891
			l-4.891-599.031h215v918H2748.221z"/>
		<path class="st2" d="M3189.161,1123.844v-918h223v918H3189.161z"/>
		<path class="st2" d="M4222.968,1123.844l-71.281-180h-355.109l-67.391,180H3488.14l384.906-918h215.141l381.016,918H4222.968z
			 M3976.733,450.922l-116.641,314.922h230.688L3976.733,450.922z"/>
	</g>
	<g>
		<defs>
			<rect id="SVGID_1_" x="305" y="640.748" width="4182" height="478"/>
		</defs>
		<clipPath id="SVGID_2_">
			<use xlink:href="#SVGID_1_"  style="overflow:visible;"/>
		</clipPath>
		<g class="st3">
			<rect y="143.998" class="st0" width="4800" height="1168.75"/>
			<path class="st1" d="M1020.429,1123.77L819.554,799.613L626.445,1123.77H362.054l321.422-484.938l-295.5-433.062H654.96
				l171.062,286l168.484-286h257.906L962.117,638.832l331.766,484.938H1020.429z"/>
			<path class="st1" d="M1378.501,1123.77v-918h617.047v187h-403.047v173h381.016v178h-381.016v191h426.375v189H1378.501z"/>
			<path class="st1" d="M2748.057,1123.77l-368.891-600.328h-3.891l4.891,600.328h-215v-918h252.406l367.594,599.031h3.891
				l-4.891-599.031h215v918H2748.057z"/>
			<path class="st1" d="M3188.997,1123.77v-918h223v918H3188.997z"/>
			<path class="st1" d="M4222.804,1123.77l-71.281-180h-355.109l-67.391,180h-241.047l384.906-918h215.141l381.016,918H4222.804z
				 M3976.569,450.848L3859.929,765.77h230.688L3976.569,450.848z"/>
		</g>
	</g>
</g>
</svg>